<?xml version="1.0" encoding="utf-8"?>
<!-- Generator: Adobe Illustrator 24.2.3, SVG Export Plug-In . SVG Version: 6.00 Build 0)  -->
<svg version="1.1" xmlns="http://www.w3.org/2000/svg" xmlns:xlink="http://www.w3.org/1999/xlink" x="0px" y="0px"
	 viewBox="0 0 400 465" style="enable-background:new 0 0 400 465;" xml:space="preserve">
<style type="text/css">
	.st0{fill:#FFFFFF;}
	.st1{fill:none;stroke:#000000;stroke-width:9;stroke-linecap:round;stroke-miterlimit:10;}
	.st2{fill:none;stroke:#000000;stroke-width:9;stroke-miterlimit:10;}
	.st3{opacity:0.5;fill:none;stroke:#000000;stroke-width:6;stroke-miterlimit:10;}
	.st4{opacity:0.9;fill:none;stroke:#000000;stroke-width:6;stroke-miterlimit:10;}
	.st5{opacity:0.9;fill:none;stroke:#000000;stroke-width:5;stroke-miterlimit:10;}
	.st6{fill:none;}
	.st7{font-family:'Roboto', sans-serif;}
	.st8{font-size:40px;}
</style>
<g id="Layer_1">
	<g>
		<circle class="st0" cx="200.5" cy="200" r="172"/>
		<g>
			<path d="M200.5,35c44.07,0,85.51,17.16,116.67,48.33S365.5,155.93,365.5,200s-17.16,85.51-48.33,116.67S244.57,365,200.5,365
				s-85.51-17.16-116.67-48.33S35.5,244.07,35.5,200s17.16-85.51,48.33-116.67S156.43,35,200.5,35 M200.5,21
				c-98.86,0-179,80.14-179,179s80.14,179,179,179s179-80.14,179-179S299.36,21,200.5,21L200.5,21z"/>
		</g>
	</g>
</g>
<g id="Layer_2">
	<g>
		<line class="st2" x1="173" y1="200.5" x2="229" y2="87.5"/>
		<g>
			<circle class="st0" cx="173" cy="200.5" r="5.5"/>
			<path d="M173,188c-6.9,0-12.5,5.6-12.5,12.5S166.1,213,173,213s12.5-5.6,12.5-12.5S179.9,188,173,188L173,188z"/>
		</g>
		<g>
			<circle class="st0" cx="278" cy="277.5" r="5.5"/>
			<path d="M278,265c-6.9,0-12.5,5.6-12.5,12.5S271.1,290,278,290s12.5-5.6,12.5-12.5S284.9,265,278,265L278,265z"/>
		</g>
		<g>
			<circle class="st0" cx="229" cy="87.5" r="5.5"/>
			<path d="M229,75c-6.9,0-12.5,5.6-12.5,12.5S222.1,100,229,100s12.5-5.6,12.5-12.5S235.9,75,229,75L229,75z"/>
		</g>
		<g>
			<circle class="st0" cx="112" cy="159.5" r="5.5"/>
			<path d="M112,147c-6.9,0-12.5,5.6-12.5,12.5S105.1,172,112,172s12.5-5.6,12.5-12.5S118.9,147,112,147L112,147z"/>
		</g>
		<g>
			<circle class="st0" cx="117" cy="277.5" r="5.5"/>
			<path d="M117,265c-6.9,0-12.5,5.6-12.5,12.5S110.1,290,117,290s12.5-5.6,12.5-12.5S123.9,265,117,265L117,265z"/>
		</g>
		<g>
			<circle class="st0" cx="283" cy="182.5" r="5.5"/>
			<path d="M283,170c-6.9,0-12.5,5.6-12.5,12.5S276.1,195,283,195s12.5-5.6,12.5-12.5S289.9,170,283,170L283,170z"/>
		</g>
		<line class="st2" x1="230" y1="88.5" x2="283" y2="182.5"/>
		<line class="st2" x1="278" y1="277.5" x2="173" y2="200.5"/>
		<line class="st2" x1="283" y1="182.5" x2="278" y2="277.5"/>
		<line class="st2" x1="119" y1="277.5" x2="278.5" y2="277.5"/>
		<line class="st3" x1="173.5" y1="201" x2="117.5" y2="278"/>
		<line class="st3" x1="229.5" y1="88" x2="112" y2="159.5"/>
		<line class="st2" x1="170" y1="200.5" x2="112" y2="159.5"/>
	</g>
</g>
<g id="Layer_3">
	<rect x="66.47" y="403.64" class="st6" width="269.81" height="33.36"/>
	<text transform="matrix(1 0 0 1 104.4009 433.6426)" class="st7 st8" font-weight="bold">Circulation</text>
</g>
</svg>
