<?xml version="1.0" encoding="utf-8"?>
<!-- Generator: Adobe Illustrator 24.2.3, SVG Export Plug-In . SVG Version: 6.00 Build 0)  -->
<svg version="1.1" id="Layer_1" xmlns="http://www.w3.org/2000/svg" xmlns:xlink="http://www.w3.org/1999/xlink" x="0px" y="0px"
	 viewBox="0 0 400 465" style="enable-background:new 0 0 400 465;" xml:space="preserve">
<style type="text/css">
	.st0{fill:none;}
	.st1{font-family:'Roboto', sans-serif;}
	.st2{font-size:40px;}
	.st3{fill:#FFFFFF;}
	.st4{font-weight: "bold";}
</style>
<g id="Layer_1_1_">
	<g id="Layer_3">
		<rect x="65.6" y="403.6" class="st0" width="269.8" height="33.4"/>
		<text transform="matrix(1 0 0 1 99.7185 433.6426)" class="st1 st2" style="font-weight: bold">Framework</text>
	</g>
	<g>
		<circle class="st3" cx="200.5" cy="200" r="172"/>
		<g>
			<path d="M200.5,35c44.1,0,85.5,17.2,116.7,48.3s48.3,72.6,48.3,116.7s-17.2,85.5-48.3,116.7S244.6,365,200.5,365
				S115,347.8,83.8,316.7S35.5,244.1,35.5,200s17.2-85.5,48.3-116.7S156.4,35,200.5,35 M200.5,21c-98.9,0-179,80.1-179,179
				s80.1,179,179,179s179-80.1,179-179S299.4,21,200.5,21L200.5,21z"/>
		</g>
	</g>
</g>
<g id="Layer_2_1_">
	<g>
		<polygon points="117.5,133.7 117.5,266.7 197,200.2 		"/>
		<polygon points="191.5,133.7 191.5,266.7 271,200.2 		"/>
		<rect x="264.5" y="134.7" width="18" height="131"/>
	</g>
</g>
</svg>
